M48
;DRILL file {KiCad 4.0.6} date 10/25/17 15:52:11
;FORMAT={-:-/ absolute / metric / decimal}
FMAT,2
METRIC,TZ
T1C1.000
%
G90
G05
M71
T1
X114.211Y-116.434
X116.751Y-93.574
X116.751Y-116.434
X119.291Y-93.574
X119.291Y-116.434
X121.831Y-93.574
X121.831Y-116.434
X124.371Y-93.574
X124.371Y-116.434
X126.84Y-97.86
X126.84Y-113.1
X126.911Y-93.574
X126.911Y-116.434
X129.38Y-97.86
X129.38Y-113.1
X129.451Y-93.574
X129.451Y-116.434
X131.92Y-97.86
X131.92Y-113.1
X131.991Y-93.574
X131.991Y-116.434
X134.46Y-97.86
X134.46Y-100.4
X134.46Y-113.1
X134.531Y-93.574
X134.531Y-116.434
X137.Y-97.86
X137.Y-100.4
X137.Y-113.1
X137.071Y-93.574
X137.071Y-116.434
X139.54Y-97.86
X139.54Y-100.4
X139.54Y-113.1
X139.611Y-93.574
X139.611Y-116.434
X142.08Y-97.86
X142.08Y-113.1
X142.151Y-93.574
X142.151Y-116.434
X144.62Y-97.86
X144.62Y-113.1
X144.691Y-93.574
X144.691Y-116.434
X147.16Y-97.86
X147.16Y-113.1
X147.231Y-93.574
X147.231Y-116.434
X149.7Y-97.86
X149.7Y-113.1
X149.771Y-93.574
X149.771Y-116.434
X152.24Y-97.86
X152.24Y-113.1
X152.311Y-93.574
X152.311Y-116.434
X154.78Y-97.86
X154.78Y-113.1
X154.851Y-93.574
X154.851Y-116.434
X157.32Y-97.86
X157.32Y-113.1
X157.391Y-93.574
X157.391Y-116.434
X159.86Y-97.86
X159.86Y-100.4
X159.86Y-102.94
X159.86Y-105.48
X159.86Y-108.02
X159.86Y-110.56
X159.86Y-113.1
X159.931Y-93.574
X159.931Y-116.434
X162.471Y-93.574
X162.471Y-116.434
X165.011Y-93.574
X165.011Y-116.434
X167.551Y-93.574
X167.551Y-116.434
X170.091Y-93.574
X170.091Y-116.434
X172.631Y-93.574
X172.631Y-116.434
X175.171Y-93.574
X175.171Y-116.434
X177.711Y-93.574
X177.711Y-116.434
X180.251Y-93.574
X180.251Y-116.434
X182.791Y-93.574
X182.791Y-99.924
X182.791Y-102.464
X182.791Y-105.004
X182.791Y-107.544
X182.791Y-110.084
X182.791Y-116.434
T0
M30
