G04 #@! TF.FileFunction,Copper,L1,Top,Signal*
%FSLAX46Y46*%
G04 Gerber Fmt 4.6, Leading zero omitted, Abs format (unit mm)*
G04 Created by KiCad (PCBNEW 4.0.6) date 10/25/17 15:52:07*
%MOMM*%
%LPD*%
G01*
G04 APERTURE LIST*
%ADD10C,0.100000*%
%ADD11R,1.700000X1.700000*%
%ADD12O,1.700000X1.700000*%
%ADD13C,1.900000*%
%ADD14C,0.500000*%
%ADD15C,0.250000*%
G04 APERTURE END LIST*
D10*
D11*
X182791100Y-116433600D03*
D12*
X180251100Y-116433600D03*
X177711100Y-116433600D03*
X175171100Y-116433600D03*
X172631100Y-116433600D03*
X170091100Y-116433600D03*
X167551100Y-116433600D03*
X165011100Y-116433600D03*
X162471100Y-116433600D03*
X159931100Y-116433600D03*
X157391100Y-116433600D03*
X154851100Y-116433600D03*
X152311100Y-116433600D03*
X149771100Y-116433600D03*
X147231100Y-116433600D03*
X144691100Y-116433600D03*
X142151100Y-116433600D03*
X139611100Y-116433600D03*
X137071100Y-116433600D03*
X134531100Y-116433600D03*
X131991100Y-116433600D03*
X129451100Y-116433600D03*
X126911100Y-116433600D03*
X124371100Y-116433600D03*
X121831100Y-116433600D03*
X119291100Y-116433600D03*
X116751100Y-116433600D03*
X114211100Y-116433600D03*
D11*
X182791100Y-99923600D03*
D12*
X182791100Y-102463600D03*
X182791100Y-105003600D03*
X182791100Y-107543600D03*
X182791100Y-110083600D03*
D11*
X182791100Y-93573600D03*
D12*
X180251100Y-93573600D03*
X177711100Y-93573600D03*
X175171100Y-93573600D03*
X172631100Y-93573600D03*
X170091100Y-93573600D03*
X167551100Y-93573600D03*
X165011100Y-93573600D03*
X162471100Y-93573600D03*
X159931100Y-93573600D03*
X157391100Y-93573600D03*
X154851100Y-93573600D03*
X152311100Y-93573600D03*
X149771100Y-93573600D03*
X147231100Y-93573600D03*
X144691100Y-93573600D03*
X142151100Y-93573600D03*
X139611100Y-93573600D03*
X137071100Y-93573600D03*
X134531100Y-93573600D03*
X131991100Y-93573600D03*
X129451100Y-93573600D03*
X126911100Y-93573600D03*
X124371100Y-93573600D03*
X121831100Y-93573600D03*
X119291100Y-93573600D03*
X116751100Y-93573600D03*
D13*
X134460000Y-100400000D03*
X137000000Y-100400000D03*
X139540000Y-100400000D03*
X159860000Y-110560000D03*
X159860000Y-108020000D03*
X159860000Y-105480000D03*
X159860000Y-100400000D03*
X159860000Y-102940000D03*
X129380000Y-113100000D03*
X131920000Y-113100000D03*
X134460000Y-113100000D03*
X137000000Y-113100000D03*
X139540000Y-113100000D03*
X142080000Y-113100000D03*
X144620000Y-113100000D03*
X147160000Y-113100000D03*
X149700000Y-113100000D03*
X152240000Y-113100000D03*
X154780000Y-113100000D03*
X157320000Y-113100000D03*
X159860000Y-113100000D03*
X159860000Y-97860000D03*
X157320000Y-97860000D03*
X154780000Y-97860000D03*
X152240000Y-97860000D03*
X149700000Y-97860000D03*
X147160000Y-97860000D03*
X144620000Y-97860000D03*
X142080000Y-97860000D03*
X139540000Y-97860000D03*
X137000000Y-97860000D03*
X134460000Y-97860000D03*
X131920000Y-97860000D03*
X129380000Y-97860000D03*
X126840000Y-97860000D03*
X126840000Y-113100000D03*
D14*
X126840000Y-113100000D02*
X126840000Y-116362500D01*
X126840000Y-116362500D02*
X126911100Y-116433600D01*
X159860000Y-105480000D02*
X182314700Y-105480000D01*
X182314700Y-105480000D02*
X182791100Y-105003600D01*
X126844000Y-116366500D02*
X126911100Y-116433600D01*
X159860000Y-100400000D02*
X163160000Y-97100000D01*
X163160000Y-97100000D02*
X182837502Y-97100000D01*
X182837502Y-97100000D02*
X184800000Y-99062498D01*
X184800000Y-99062498D02*
X184800000Y-110682619D01*
X184800000Y-110682619D02*
X180251100Y-115231519D01*
X180251100Y-115231519D02*
X180251100Y-116433600D01*
X159860000Y-113100000D02*
X159860000Y-116362500D01*
X159860000Y-116362500D02*
X159931100Y-116433600D01*
X159931100Y-112487100D02*
X159864000Y-112420000D01*
X157320000Y-113100000D02*
X157320000Y-116362500D01*
X157320000Y-116362500D02*
X157391100Y-116433600D01*
X157391100Y-112487100D02*
X157324000Y-112420000D01*
X154780000Y-113100000D02*
X154780000Y-116362500D01*
X154780000Y-116362500D02*
X154851100Y-116433600D01*
X154784000Y-116366500D02*
X154851100Y-116433600D01*
X152240000Y-113100000D02*
X152240000Y-116362500D01*
X152240000Y-116362500D02*
X152311100Y-116433600D01*
X152311100Y-112487100D02*
X152244000Y-112420000D01*
X149700000Y-113100000D02*
X149700000Y-116362500D01*
X149700000Y-116362500D02*
X149771100Y-116433600D01*
X149704000Y-116366500D02*
X149771100Y-116433600D01*
X147160000Y-113100000D02*
X147160000Y-116362500D01*
X147160000Y-116362500D02*
X147231100Y-116433600D01*
X147164000Y-116366500D02*
X147231100Y-116433600D01*
X144620000Y-113100000D02*
X144620000Y-116362500D01*
X144620000Y-116362500D02*
X144691100Y-116433600D01*
D15*
X144624000Y-116366500D02*
X144691100Y-116433600D01*
D14*
X142080000Y-113100000D02*
X142080000Y-116362500D01*
X142080000Y-116362500D02*
X142151100Y-116433600D01*
D15*
X142084000Y-116366500D02*
X142151100Y-116433600D01*
D14*
X139540000Y-113100000D02*
X139540000Y-116362500D01*
X139540000Y-116362500D02*
X139611100Y-116433600D01*
D15*
X139544000Y-116366500D02*
X139611100Y-116433600D01*
D14*
X137000000Y-113100000D02*
X137000000Y-116362500D01*
X137000000Y-116362500D02*
X137071100Y-116433600D01*
D15*
X137004000Y-116366500D02*
X137071100Y-116433600D01*
D14*
X134460000Y-113100000D02*
X134460000Y-116362500D01*
X134460000Y-116362500D02*
X134531100Y-116433600D01*
D15*
X134464000Y-116366500D02*
X134531100Y-116433600D01*
D14*
X131920000Y-113100000D02*
X131920000Y-116362500D01*
X131920000Y-116362500D02*
X131991100Y-116433600D01*
D15*
X131924000Y-116366500D02*
X131991100Y-116433600D01*
D14*
X129380000Y-113100000D02*
X129380000Y-116362500D01*
X129380000Y-116362500D02*
X129451100Y-116433600D01*
D15*
X129384000Y-116366500D02*
X129451100Y-116433600D01*
D14*
X182791100Y-102463600D02*
X160336400Y-102463600D01*
X160336400Y-102463600D02*
X159860000Y-102940000D01*
X160067600Y-102463600D02*
X159864000Y-102260000D01*
X159860000Y-108020000D02*
X182314700Y-108020000D01*
X182314700Y-108020000D02*
X182791100Y-107543600D01*
X124371100Y-93573600D02*
X125997490Y-95199990D01*
X125997490Y-95199990D02*
X129259990Y-95199990D01*
X129259990Y-95199990D02*
X130970001Y-96910001D01*
X130970001Y-96910001D02*
X131920000Y-97860000D01*
X182791100Y-110083600D02*
X160336400Y-110083600D01*
X160336400Y-110083600D02*
X159860000Y-110560000D01*
X182587500Y-109880000D02*
X182791100Y-110083600D01*
X159864000Y-97180000D02*
X159864000Y-93640700D01*
X159864000Y-93640700D02*
X159931100Y-93573600D01*
X157391100Y-93573600D02*
X157391100Y-97112900D01*
X157391100Y-97112900D02*
X157324000Y-97180000D01*
X154851100Y-93573600D02*
X154851100Y-97112900D01*
X154851100Y-97112900D02*
X154784000Y-97180000D01*
X152311100Y-93573600D02*
X152311100Y-97112900D01*
X152311100Y-97112900D02*
X152244000Y-97180000D01*
X149771100Y-93573600D02*
X149771100Y-97112900D01*
X149771100Y-97112900D02*
X149704000Y-97180000D01*
X147231100Y-93573600D02*
X147231100Y-97112900D01*
X147231100Y-97112900D02*
X147164000Y-97180000D01*
X144691100Y-93573600D02*
X144691100Y-97112900D01*
X144691100Y-97112900D02*
X144624000Y-97180000D01*
X142151100Y-93573600D02*
X142151100Y-97112900D01*
X142151100Y-97112900D02*
X142084000Y-97180000D01*
X139611100Y-93573600D02*
X139611100Y-97112900D01*
X139611100Y-97112900D02*
X139544000Y-97180000D01*
X137071100Y-93573600D02*
X137071100Y-97112900D01*
X137071100Y-97112900D02*
X137004000Y-97180000D01*
X134531100Y-93573600D02*
X134531100Y-97112900D01*
X134531100Y-97112900D02*
X134464000Y-97180000D01*
X120411886Y-102000000D02*
X120631897Y-102220011D01*
X113451081Y-95039195D02*
X120411886Y-102000000D01*
X120411886Y-102000000D02*
X121411896Y-103000010D01*
X121411896Y-103000010D02*
X136939990Y-103000010D01*
X136939990Y-103000010D02*
X138590001Y-101349999D01*
X138590001Y-101349999D02*
X139540000Y-100400000D01*
X131991100Y-93573600D02*
X128691081Y-90273581D01*
X128691081Y-90273581D02*
X115285505Y-90273581D01*
X115285505Y-90273581D02*
X113451080Y-92108008D01*
X113451080Y-92108008D02*
X113451081Y-95039195D01*
X135400000Y-102100000D02*
X135400000Y-102000000D01*
X135400000Y-102000000D02*
X137000000Y-100400000D01*
X129451100Y-93573600D02*
X127051089Y-91173589D01*
X127051089Y-91173589D02*
X115658302Y-91173590D01*
X115658302Y-91173590D02*
X114351089Y-92480803D01*
X114351089Y-92480803D02*
X114351090Y-94666398D01*
X114351090Y-94666398D02*
X121784692Y-102100000D01*
X121784692Y-102100000D02*
X135400000Y-102100000D01*
X126911100Y-93573600D02*
X125411099Y-92073599D01*
X125411099Y-92073599D02*
X116031099Y-92073599D01*
X116031099Y-92073599D02*
X115251099Y-92853599D01*
X115251099Y-92853599D02*
X115251099Y-94293601D01*
X115251099Y-94293601D02*
X121257498Y-100300000D01*
X121257498Y-100300000D02*
X134600000Y-100300000D01*
X121831100Y-93573600D02*
X124357500Y-96100000D01*
X124357500Y-96100000D02*
X128304000Y-96100000D01*
X128304000Y-96100000D02*
X128434001Y-96230001D01*
X128434001Y-96230001D02*
X129384000Y-97180000D01*
X119291100Y-93573600D02*
X122897500Y-97180000D01*
X122897500Y-97180000D02*
X126844000Y-97180000D01*
M02*
